<svg width="318" height="318" viewBox="0 0 318 318" fill="none" xmlns="http://www.w3.org/2000/svg">
<g clip-path="url(#clip0)">
<path d="M193.816 160.719C188.837 129.832 161.181 107.828 130.356 109.67C128.949 109.746 127.542 109.879 126.135 110.069C105.209 112.788 88.2661 125.963 79.8348 143.699C78.7063 135.676 79.2247 127.514 81.3599 119.689C83.495 111.863 87.2041 104.531 92.2713 98.118C113.055 71.6003 151.332 66.1092 177.771 85.8487C182.072 89.0555 185.899 92.8268 189.143 97.0557C202.978 115.101 204.982 139.999 193.816 160.719Z" fill="white"/>
<path d="M174.984 228.462C166.022 236.663 154.652 241.919 142.472 243.491C109.481 247.783 79.0761 224.43 74.562 191.345C72.9486 179.739 74.7783 167.925 79.8345 157.303C88.2646 139.567 105.209 126.393 126.135 123.674C127.542 123.486 128.949 123.353 130.356 123.275C116.248 136.103 108.504 155.485 111.291 175.919C112.738 186.717 117.1 196.945 123.93 205.557C135.92 220.633 154.767 229.675 174.984 228.462Z" fill="white"/>
<path d="M191.876 221.882C190.471 222.067 189.063 222.205 187.654 222.277C167.439 223.491 148.591 214.449 136.603 199.37C159.529 204.986 185.045 196.934 200.669 177.007C202.863 174.216 204.81 171.249 206.489 168.137C217.658 147.419 215.655 122.518 201.813 104.472C223.359 111.436 240.165 130.273 243.436 154.209C247.95 187.296 224.869 217.603 191.876 221.882Z" fill="white"/>
</g>
<defs>
<clipPath id="clip0">
<rect width="170" height="170" fill="white" transform="translate(74 74)"/>
</clipPath>
</defs>
</svg>
