<?xml version="1.0" standalone="no"?>
<!DOCTYPE svg PUBLIC "-//W3C//DTD SVG 20010904//EN"
 "http://www.w3.org/TR/2001/REC-SVG-20010904/DTD/svg10.dtd">
<svg version="1.0" xmlns="http://www.w3.org/2000/svg"
 width="479.000000pt" height="479.000000pt" viewBox="0 0 479.000000 479.000000"
 preserveAspectRatio="xMidYMid meet">
<metadata>
Created by potrace 1.11, written by Peter Selinger 2001-2013
</metadata>
<g transform="translate(0.000000,479.000000) scale(0.100000,-0.100000)"
fill="#000000" stroke="none">
<path d="M1750 4783 c-692 -74 -1276 -555 -1479 -1220 -71 -233 -96 -494 -65
-692 5 -33 6 -32 60 65 236 429 648 729 1135 825 163 33 446 32 599 0 677
-143 1180 -651 1326 -1336 l17 -80 34 75 c193 423 213 891 56 1315 -45 122
-142 299 -223 406 -261 349 -652 577 -1088 634 -103 14 -284 18 -372 8z"/>
<path d="M3570 3926 c0 -2 21 -34 47 -72 62 -93 154 -287 192 -408 52 -163 73
-306 74 -506 1 -234 -27 -392 -110 -610 -184 -486 -580 -866 -1071 -1030 -268
-89 -568 -111 -830 -61 -51 10 -92 14 -92 10 0 -14 201 -218 263 -268 218
-172 459 -284 737 -342 151 -31 408 -32 572 -1 826 156 1402 888 1365 1736
-28 626 -386 1189 -932 1463 -85 43 -215 97 -215 89z"/>
<path d="M1415 3381 c-398 -71 -754 -287 -1007 -612 -162 -208 -273 -456 -330
-739 -30 -152 -32 -450 -4 -605 124 -684 605 -1210 1256 -1374 490 -123 1032
2 1425 329 l67 55 -154 6 c-529 21 -995 280 -1304 725 -262 376 -363 883 -268
1344 27 132 73 261 145 405 77 157 168 291 278 407 l73 78 -38 -1 c-22 0 -84
-9 -139 -18z"/>
</g>
</svg>
