<svg width="468" height="479" viewBox="0 0 468 479" fill="none" xmlns="http://www.w3.org/2000/svg">
<g clip-path="url(#clip0)">
<path d="M329.212 244.153C315.53 157.191 239.542 95.241 154.847 100.427C150.98 100.642 147.114 101.016 143.247 101.549C85.7521 109.206 39.198 146.298 16.032 196.234C12.9312 173.646 14.3556 150.667 20.2222 128.634C26.0887 106.602 36.28 85.9572 50.2029 67.902C107.309 -6.75804 212.48 -22.218 285.124 33.358C296.943 42.3866 307.459 53.0046 316.372 64.911C354.385 115.716 359.891 185.818 329.212 244.153Z" fill="white"/>
<path d="M277.467 434.883C252.842 457.974 221.603 472.772 188.137 477.199C97.4881 489.283 13.9471 423.533 1.54412 330.381C-2.88896 297.705 2.13847 264.444 16.0309 234.538C39.1939 184.603 85.75 147.512 143.247 139.856C147.114 139.326 150.98 138.952 154.847 138.733C116.082 174.851 94.8041 229.419 102.461 286.95C106.438 317.351 118.424 346.149 137.189 370.396C170.133 412.842 221.919 438.299 277.467 434.883Z" fill="white"/>
<path d="M323.88 416.358C320.02 416.878 316.151 417.267 312.28 417.471C256.737 420.887 204.95 395.431 172.011 352.977C235.002 368.788 305.111 346.117 348.041 290.013C354.069 282.157 359.418 273.803 364.032 265.041C394.719 206.71 389.216 136.601 351.183 85.792C410.383 105.4 456.562 158.435 465.548 225.826C477.951 318.982 414.532 404.31 323.88 416.358Z" fill="white"/>
</g>
<defs>
<clipPath id="clip0">
<rect width="467.098" height="478.631" fill="white"/>
</clipPath>
</defs>
</svg>
