<svg width="396" height="396" viewBox="0 0 396 396" fill="none" xmlns="http://www.w3.org/2000/svg">
<path d="M171.781 102.279C144.187 105.23 120.901 124.41 112.806 150.926C109.975 160.217 108.978 170.625 110.214 178.52C110.414 179.836 110.453 179.796 112.607 175.928C122.017 158.822 138.446 146.859 157.865 143.031C164.364 141.715 175.649 141.755 181.749 143.031C208.745 148.733 228.802 168.99 234.623 196.304L235.301 199.494L236.657 196.503C244.353 179.636 245.15 160.975 238.89 144.068C237.096 139.203 233.228 132.145 229.998 127.879C219.591 113.963 204 104.871 186.614 102.598C182.507 102.04 175.29 101.88 171.781 102.279Z" fill="white"/>
<path d="M244.353 136.452C244.353 136.532 245.19 137.808 246.227 139.323C248.699 143.031 252.368 150.767 253.883 155.592C255.956 162.091 256.794 167.793 256.834 175.768C256.874 185.099 255.757 191.399 252.447 200.092C245.111 219.471 229.32 234.623 209.742 241.163C199.055 244.712 187.093 245.589 176.646 243.595C174.612 243.196 172.977 243.037 172.977 243.196C172.977 243.755 180.992 251.889 183.464 253.883C192.157 260.741 201.767 265.207 212.852 267.52C218.873 268.756 229.121 268.796 235.66 267.56C268.597 261.339 291.565 232.151 290.089 198.337C288.973 173.376 274.698 150.926 252.926 140.001C249.537 138.286 244.353 136.133 244.353 136.452Z" fill="white"/>
<path d="M158.423 158.184C142.553 161.015 128.357 169.628 118.269 182.587C111.809 190.881 107.383 200.77 105.11 212.054C103.914 218.115 103.834 229.998 104.951 236.179C109.895 263.453 129.075 284.427 155.033 290.966C174.572 295.871 196.184 290.887 211.855 277.848L214.527 275.655L208.386 275.415C187.292 274.578 168.711 264.25 156.389 246.506C145.942 231.513 141.915 211.297 145.703 192.914C146.779 187.651 148.614 182.507 151.485 176.765C154.555 170.505 158.184 165.162 162.57 160.536L165.481 157.426L163.965 157.466C163.088 157.466 160.616 157.825 158.423 158.184Z" fill="white"/>
</svg>
