<svg xmlns="http://www.w3.org/2000/svg" width="467.098" height="478.631" viewBox="0 0 467.098 478.631">
  <g id="M" transform="translate(0)">
    <path id="Path_1" data-name="Path 1" d="M3941.878-1129.7c-13.682-86.962-89.67-148.912-174.365-143.726q-5.8.322-11.6,1.122c-57.495,7.657-104.049,44.749-127.215,94.685a171.876,171.876,0,0,1,34.171-128.332c57.106-74.66,162.277-90.12,234.921-34.544a161.5,161.5,0,0,1,31.248,31.553C3967.051-1258.137,3972.557-1188.035,3941.878-1129.7Z" transform="translate(-3612.666 1373.853)"/>
    <path id="Path_2" data-name="Path 2" d="M3902.576-1058.77a161.575,161.575,0,0,1-89.33,42.316c-90.649,12.084-174.19-53.666-186.593-146.818a172.46,172.46,0,0,1,14.487-95.843c23.163-49.935,69.719-87.026,127.216-94.682q5.8-.795,11.6-1.123c-38.765,36.118-60.043,90.686-52.386,148.217a173.007,173.007,0,0,0,34.728,83.446C3795.242-1080.811,3847.028-1055.354,3902.576-1058.77Z" transform="translate(-3625.109 1493.653)"/>
    <path id="Path_3" data-name="Path 3" d="M3800.448-1031.583c-3.86.52-7.729.909-11.6,1.113-55.543,3.416-107.33-22.04-140.269-64.494,62.991,15.811,133.1-6.86,176.03-62.964A174.865,174.865,0,0,0,3840.6-1182.9c30.687-58.331,25.184-128.44-12.849-179.249,59.2,19.608,105.379,72.643,114.365,140.034C3954.519-1128.959,3891.1-1043.631,3800.448-1031.583Z" transform="translate(-3476.568 1447.941)"/>
  </g>
</svg>
